<?xml version="1.0" encoding="utf-8"?>
<!-- Generator: Adobe Illustrator 25.1.0, SVG Export Plug-In . SVG Version: 6.00 Build 0)  -->
<svg class=logo version="1.1" id="Lager_1" xmlns="http://www.w3.org/2000/svg" xmlns:xlink="http://www.w3.org/1999/xlink" x="0px" y="0px"
	 viewBox="0 0 1920 1080" style="enable-background:new 0 0 1920 1080;" xml:space="preserve">
<style type="text/css">
	.st0{display:none;fill:#EAD3DE;}
	.st1{fill:none;}
</style>
<rect class="st0" width="1920" height="1080"/>
<g>
	<path d="M1082.7,461.7c-0.8,2.2-1.3,4.7-1.3,7.3c-1.3,14.5-1.7,32.2-1.7,46.7c0,53.6,24.5,83.2,73.7,83.2c4.7,0,9-0.5,12.5-0.8
		c-8.2,6.8-15.8,9.5-29.5,9.5c-43.7,0-65.2-26.5-65.2-74.6c0-14.2,0.5-31.3,1.7-45.9C1073.7,477.6,1077.6,469.1,1082.7,461.7z
		 M1095.2,319.3c-2.2,10.3-2.2,19.3-2.2,22.7c0,20.5,13.7,51,21.5,68.2l2.2,4.7c-3,2.5-7.3,5.5-11.2,9.8c-7.3-15.9-21-45.5-21-65.6
		C1084.4,353.7,1084,334.8,1095.2,319.3z M1197.6,564.6c-15.5,20.2-22.7,25.7-44.2,25.7c-43.7,0-65.2-26.5-65.2-74.6
		c0-14.2,0.5-31.3,1.7-45.9c3-30.9,36.9-50.6,36.9-51.9c0-3.8-25.3-48.9-25.3-75.9c0-9.8-1.3-61.7,62.2-61.7
		c25.3,0,53.2,16.7,53.2,53.6c0,6.5-0.5,32.2-0.5,36.9c0,35.5-43.3,49.7-43.3,59.2c0,2.2,13.3,28.7,25.3,54.9l2.5-0.5
		c4.3-16.3,8.2-32.5,9.8-36.9c0.8-2.5,2.2-3.8,4.3-3.8h1.3l27.5,2.2c2.2,0.5,3,1.3,3,2.5c0,0.5,0,0.8-0.5,1.3h0.5
		c0,2.2-14.5,48.9-26.5,79.4c3.5,6,8.5,13.3,12.5,13.3c14.2,0,2.5-27,12-27.9l27.9-0.5c2.5,0.5,3.8,3.5,3.8,5.5
		c-0.5,5.5,3.8,69.4-41.2,69.4c-19.3,0-27.5-15.9-34.7-24.9L1197.6,564.6z M1159.9,549.6h0.8c9.5,0,15.8-8.5,20.2-19.3l-36.5-78.9
		c-12.5,6-17.2,17.5-17.2,29.5v35.2C1127.3,550.9,1147.4,549.6,1159.9,549.6z M1160.8,541l-24.9-53.6v-6.5c0-6.5,0.8-12,5.2-16.7
		l30.5,66C1168.5,536.3,1164.6,541,1160.8,541z M1178.3,366.5c0-7.3,0.8-26.2,0-33c-0.8-5.5-5.5-9.8-10.3-12.8c0,0-3.5-1.3-8.2-1.3
		c-7.7,0-18,5.5-18,15.9c0,24,12,58.3,17.2,58.3C1167.6,393.5,1178.3,378.5,1178.3,366.5z M1150.5,337.8v-2.6c0-4.7,5.5-7.3,9.5-7.3
		c2.5,0,3.8,0.5,4.3,0.5c2.5,2.2,4.7,3.8,5.5,6v32.2c0,7.3-4.3,15.5-8.5,18v-0.8c0-7.3,0.8-26.2,0-33c-0.8-5.5-5.5-9.8-10.3-12.8
		h-0.5V337.8z M1242.2,597.2c-5.5,5.2-13.7,9-24,9c-15.5,0-23.5-9.8-30-18.5c3.5-3,6.8-6,10.7-10.7c7.3,9.5,17.2,20.5,36.5,20.5
		C1238,597.7,1240.1,597.2,1242.2,597.2z"/>
</g>
<g>
	<path d="M525.3,239c-0.4,0.4-0.4,0.8-0.4,1.3c0,0.4-0.4,1.7-0.4,3.4c-0.4,1.3-0.4,2.1-0.4,2.5c-2.1,10.1-2.1,21.4-2.1,32.3
		c0,47,37.4,85.2,64.7,114.6c10.1,10.9,13,24.4,13,40.3c0,7.1-0.8,16.8-5.5,20.2h-1.3h-1.7v-3.4c0-16.4-2.9-31.1-12.6-43.2v-21.8
		l-9.7-0.8H558c-22.3-25.2-44.5-55-44.5-89c0-10.5,0-20.2,2.1-30.6c0-0.8,0.8-6.3,0.8-7.1C518.2,251.1,521.1,244.8,525.3,239z
		 M605.1,505.6l3.8-0.8c-5.9,5-13.4,8-21.8,9.2h-27.7c-5.9,0-13-3.8-19.3-5.9c-20.2-8.4-22.3-29.4-24.4-49.5
		c0-2.9-0.8-14.7-0.8-16.8v-31.5l0.8-0.8h8l-0.4,15.5c0,0.8,0.4,4.6,0.4,8c0.4,3.8,0.4,8,0.4,9.7c2.1,22.7,4.6,46.2,29.8,56.7
		c1.7,0,3.4,1.3,5.5,2.1c5,1.7,10.1,4.2,16.8,4.2h28.9V505.6z M576.2,497.2c-5.9,0-13-3.8-19.3-5.9c-20.2-8.4-22.3-29.4-24.4-49.5
		c0-2.9-0.8-14.7-0.8-16.8v-31.5l0.8-0.8H569l1.3,0.8v42c0,2.1,0.8,11.8,0.8,13.9l5,7.1c3.4,4.2,11.3,5.5,16.8,5.5h2.1
		c12.2-3.4,13-18.1,13-28.6c0-18.1-3.4-33.6-15.1-46.2c-26.4-28.6-62.6-65.5-62.6-108.7c0-10.5,0-20.2,2.1-30.6
		c0-0.8,0.8-6.3,0.8-7.1c4.2-14.7,14.3-28.6,27.7-34.8c8-2.9,15.1-4.2,23.5-4.2c9.2,0,17.2,0,25.2,3.4c1.3,0,6.3,2.9,7.1,4.2
		c2.5,2.1,8.4,8.4,9.2,9.2c11.3,13.9,10.5,39,10.5,55.8v13.4c0,0.8-0.8,3.4-0.8,4.2c0,1.3-1.3,2.5-1.3,2.5h-32.8
		c-1.3,0-2.1-3.4-2.1-3.4c0-12.6,0-26-0.8-38.6c-2.1-8.8-3.8-12.6-12.6-12.6c-17.6,0-16,14.3-16,29c0,16,2.9,27.3,14.3,40.3
		c21.4,22.7,47.9,51.6,58.8,83.6c1.3,2.9,4.6,12.6,4.6,12.6v44.1c0,0-1.3,2.9-1.3,4.2c-6.3,23.1-19.7,40.7-42.8,43.7h-27.4V497.2z
		 M578.7,260.4c0-6.7,1.3-12.2,7.6-12.2c2.5,0,2.9,0.8,4.2,5c0.8,12.6,0.8,25.6,0.8,38.2c0,0,2.9,11.3,10.5,11.3h18.1v1.7
		c0,0.8-0.8,3.4-0.8,4.2c0,1.3-1.3,2.5-1.3,2.5H598l-7.1-8v0.4c-3.8-3.8-6.3-7.6-8-11.8c0-7.6-0.4-15.1-0.8-22.7
		C580.8,265.4,579.9,262.5,578.7,260.4z"/>
	<path d="M709.2,501.4c4.2,2.9,5.9,2.9,8.8,3.4l-0.4-0.4l5.5,2.1c-0.4,0,0.4,0.4,0.4,0.4c0.8,1.3,2.5,2.9,7.6,2.9h22.3
		c0.8,0,1.7,0,2.9-0.4c-1.7,1.7-3.8,2.9-5.5,4.2c-3.4,2.5-11.3,4.6-14.3,4.6h-22.3c-1.3,0-4.6-3.4-5.9-3.4
		c-3.4-2.1-7.6-1.3-10.9-3.4l-1.3-1.3c-2.1-2.9-10.1-10.9-10.1-10.9c-10.9-13.4-13-32.3-15.1-48.7c0-2.5-1.3-10.5-1.3-11.3V304.9
		c0,0,1.3-10.1,1.3-13.4c0-2.1,0.8-8.8,0.8-10.1c0-3.4,2.5-13,2.5-13c0-1.3,5.5-10.1,5.5-11.3l0.8-4.2c1.7-5.9,4.6-11.8,8.4-17.2
		l-0.8,4.6c0,0-1.3,0.4-2.1,2.1c-1.7,2.9-2.9,5.5-3.4,8c0,0-2.5,10.9-2.5,14.3c0,0-0.4,2.1-0.4,2.5c-0.4,2.5-0.4,6.3-0.4,7.6
		c0,2.5-1.3,12.6-1.3,12.6v135.2c0,0.4,0,2.1,0.8,5.5l-0.4-0.8c0.4,2.9,0.8,6.3,0.8,8c2.5,17.6,4.6,37.8,15.1,50.8
		c0,0,9.7,9.7,11.8,12.6L709.2,501.4z M713,493.4c-2.1-2.9-10.1-10.9-10.1-10.9c-10.9-13.4-13-32.3-15.1-48.7
		c0-2.5-1.3-10.5-1.3-11.3V288.1c0,0,1.3-10.1,1.3-13.4c0-2.1,0.8-8.8,0.8-10.1c0-3.4,2.5-13,2.5-13c0-1.3,5.5-10.1,5.5-11.3
		l0.8-4.2c4.6-14.7,14.3-29,29-34.8c3.4-0.8,9.2-2.1,11.3-2.1l4.2-0.8c1.3,0,10.1,0.8,12.2,0.8c5.5,1.3,15.5,1.3,21,5.5
		c19.3,13.4,25.6,41.1,29,62.1v76.8c0,15.5-0.8,64.2-0.8,71c0,1.3-1.3,19.3-2.5,24.8c-2.1,21.8-14.3,45.3-33.2,57.5
		c-3.4,2.5-11.3,4.6-14.3,4.6H731c-1.3,0-4.6-3.4-5.9-3.4c-3.4-2.1-7.6-1.3-10.9-3.4L713,493.4z M727.7,439.2
		c0,2.1,0.8,9.7,0.8,10.9c0,2.1,2.5,5.5,4.6,6.7c2.5,0.8,8.8,4.2,8.8,4.2h4.6c13,0,14.3-12.2,14.3-23.1c0-5.5,0.8-30.2,0.8-34.4
		c0-22.3,1.3-124.3,1.3-146.5c0-1.3-2.1-8-2.1-8.8l-1.3-2.5l-6.3-6.3c-2.5-1.3-6.7-1.3-8-1.3c-7.6,0-15.5,4.6-16.8,12.2
		c0,8.8-0.8,48.7-0.8,57.5v131.4H727.7z M736.9,256.6v-5.9c1.3-2.1,5.5-4.2,8.4-4.2c0.8,0,2.5,0,3.8,0.4l2.9,2.9
		c0,0.4,0.4,1.3,0.8,1.7c0,0.8,0.4,1.7,0.8,2.5l-0.4-0.4c0.4,1.7,0.8,4.2,1.3,4.2c0,10.9-0.4,44.9-0.8,72.6
		c-0.4,31.1-0.4,62.1-0.4,73.1c0,1.7-0.4,10.1-0.4,14.7c-0.4,8-0.4,16.8-0.4,19.7c0,7.1-0.4,14.7-5.9,14.7h-2.5
		c0-7.6,0.8-28.6,0.8-32.3c0-22.3,1.3-124.3,1.3-146.5c0-1.3-2.1-8-2.1-8.8l-1.3-2.5L736.9,256.6z"/>
	<path d="M896.1,507.7v5.5l-3.4,2.9h-32.8c-0.8,0-2.9-2.9-2.9-4.2c0-81.5,2.9-164.2,2.9-245.6c0-4.6,0.4-4.6-2.1-8.8H825
		c-2.1,0-4.2-4.2-4.2-5v-28.6c0-1.3,0.8-2.1,2.1-3.4h6.3v15.1l3.4,13.4h35.7v0.4c0,40.7-0.8,81.9-1.7,123s-1.3,81.9-1.3,122.6
		c0,3.8,8,12.6,11.3,12.6L896.1,507.7L896.1,507.7z M876.7,499.3c-0.8,0-2.9-2.9-2.9-4.2c0-81.5,2.9-164.2,2.9-245.6
		c0-4.6,0.4-4.6-2.1-8.8h-32.8c-2.1,0-4.2-4.2-4.2-5v-28.5c0-1.3,0.8-2.1,2.1-3.4c44.5,0,93.6,0,110,2.1l1.3,1.3
		c-0.4,15.1,1.3,26.4-3.4,36.1c-12.6,0-21-1.3-30.6-1.3c-2.1,0-2.1,2.1-3.4,4.2c0,5.5,1.3,114.6,1.3,128.5c0,52.9-2.1,110-2.1,121.8
		l-3.4,2.9h-32.7V499.3z M922.1,260v-9.7c2.1,0,4.6,0.4,7.6,0.4c1.3,0.4,2.5,0.4,3.8,0.4c-0.4,3.4-1.3,6.3-2.5,8.8h-8.9V260z"/>
	<path d="M1043,507.7v5.5l-3.4,2.9h-32.8c-0.8,0-2.9-2.9-2.9-4.2c0-81.5,2.9-164.2,2.9-245.6c0-4.6,0.4-4.6-2.1-8.8H972
		c-2.1,0-4.2-4.2-4.2-5v-28.6c0-1.3,0.8-2.1,2.1-3.4h6.3v15.1l3.4,13.4h35.7v0.4c0,40.7-0.8,81.9-1.7,123s-1.3,81.9-1.3,122.6
		c0,3.8,8,12.6,11.3,12.6L1043,507.7L1043,507.7z M1023.7,499.3c-0.8,0-2.9-2.9-2.9-4.2c0-81.5,2.9-164.2,2.9-245.6
		c0-4.6,0.4-4.6-2.1-8.8h-32.8c-2.1,0-4.2-4.2-4.2-5v-28.5c0-1.3,0.8-2.1,2.1-3.4c44.5,0,93.6,0,110,2.1l1.3,1.3
		c-0.4,15.1,1.3,26.4-3.4,36.1c-12.6,0-21-1.3-30.6-1.3c-2.1,0-2.1,2.1-3.4,4.2c0,5.5,1.3,114.6,1.3,128.5c0,52.9-2.1,110-2.1,121.8
		l-3.4,2.9h-32.7V499.3z M1069,260v-9.7c2.1,0,4.6,0.4,7.6,0.4c1.3,0.4,2.5,0.4,3.8,0.4c-0.4,3.4-1.3,6.3-2.5,8.8h-8.9V260z"/>
	<path d="M631.2,924.1h1.7v3.8c0,2.5,0,7.1-3.4,7.1l-15.5-0.4c-2.5,0-5-9.2-9.7-9.2L603,925l-3.4,2.5c-11.3,5.9-18.1,8.8-31.5,8.4
		c-24.4,0-38.6-12.2-44.9-36.1c-2.5-8.4-5-15.5-4.6-25.2l2.5-150.3c0-17.6,1.3-35.3,7.1-50.4c-1.7,9.7-1.7,20.6-1.7,31.1v152
		c0,9.7,2.1,16.4,4.2,24.4l1.3,3.8c8.4,26.4,26,39,53.7,39c14.3,0,22.3-1.7,34.4-7.6c0.4,0.4,0.4,0.8,0.8,0.8
		C623.6,920.8,621.1,924.1,631.2,924.1z M616.9,909c-10.9,5.5-18.1,6.7-31.1,6.7c-24.4,0-38.6-9.2-45.8-33.2c-2.5-8.8-5-15.5-5-25.6
		V705c0-32.8,2.5-62.6,33.6-79.8c7.1-3.4,13.4-4.2,20.6-4.2c25.2,0,45.3,3.4,54.2,29.8c1.3,3.4,3.8,13,3.8,14.3v62.6h-31.5l-2.5-2.5
		v-52.9c0,0-3.8-5-4.6-7.1c-2.5-3.4-7.1-4.6-10.9-4.6c-8.4,0-15.5,1.3-19.3,9.2c0,1.3-1.3,3.8-1.3,3.8v196.9c0,5.9,8.8,9.7,13.4,9.7
		c9.7,0,18.1-6.3,18.1-15.5v-52.1c0-2.1-1.3-6.7-2.5-9.2l-1.3-1.3h-12.2l-2.1-2.5v-23.9c0-2.5,2.1-3.8,3.4-3.8h32.8
		c2.5,0,19.3-1.3,21.4-1.3h1.3l2.5,2.5v38.2c0,14.7-1.3,83.1-1.3,97.8c0,2.1,0,6.7-3.4,6.7h-16c-2.1,0-4.6-9.2-9.7-9.2h-1.3
		L616.9,909z M585.4,677.7V676c0,0,0.8-2.5,1.3-4.2c2.1-3.4,5.9-2.9,10.9-2.9c1.7,0,2.9,0,3.8,0.8c0.8,2.1,4.2,5,4.2,5l-0.8,53.7
		l7.6,7.6h20.2v13l-29.8-0.4l-2.5-2.5l0.8-56.3c0,0-3.4-4.6-4.6-6.7C593.8,679.8,589.2,678.1,585.4,677.7z M587.5,810.4h11.8
		c0,1.3,0.8,2.1,0.8,2.5v51.6c0,3.8-3.8,6.7-8.4,7.1l1.3-40.3c0-2.5-1.3-7.1-2.5-9.7l-1.3-1.3h-3.8V807L587.5,810.4z"/>
	<path d="M712.2,921.2c4.2,2.9,5.9,2.9,8.8,3.4l-0.4-0.4l5.5,2.1c-0.4,0,0.4,0.4,0.4,0.4c0.8,1.3,2.5,2.9,7.6,2.9h22.3
		c0.8,0,1.7,0,2.9-0.4c-1.7,1.7-3.8,2.9-5.5,4.2c-3.4,2.5-11.3,4.6-14.3,4.6h-22.3c-1.3,0-4.6-3.4-5.9-3.4
		c-3.4-2.1-7.6-1.3-10.9-3.4l-1.3-1.3C697,927,689,919,689,919c-10.9-13.4-13-32.3-15.1-48.7c0-2.5-1.3-10.5-1.3-11.3V724.7
		c0,0,1.3-10.1,1.3-13.4c0-2.1,0.8-8.8,0.8-10.1c0-3.4,2.5-13,2.5-13c0-1.3,5.5-10.1,5.5-11.3l0.8-4.2c1.7-5.9,4.6-11.8,8.4-17.2
		l-0.8,4.6c0,0-1.3,0.4-2.1,2.1c-1.7,2.9-2.9,5.5-3.4,8c0,0-2.5,10.9-2.5,14.3c0,0-0.4,2.1-0.4,2.5c-0.4,2.5-0.4,6.3-0.4,7.6
		c0,2.5-1.3,12.6-1.3,12.6v135.2c0,0.4,0,2.1,0.8,5.5l-0.4-0.8c0.4,2.9,0.8,6.3,0.8,8c2.5,17.6,4.6,37.8,15.1,50.8
		c0,0,9.7,9.7,11.8,12.6L712.2,921.2z M715.9,913.2c-2.1-2.9-10.1-10.9-10.1-10.9c-10.9-13.4-13-32.3-15.1-48.7
		c0-2.5-1.3-10.5-1.3-11.3V707.9c0,0,1.3-10.1,1.3-13.4c0-2.1,0.8-8.8,0.8-10.1c0-3.4,2.5-13,2.5-13c0-1.3,5.5-10.1,5.5-11.3
		l0.8-4.2c4.6-14.7,14.3-29,29-34.8c3.4-0.8,9.2-2.1,11.3-2.1l4.2-0.8c1.3,0,10.1,0.8,12.2,0.8c5.5,1.3,15.5,1.3,21,5.5
		c19.3,13.4,25.6,41.1,29,62.1v76.8c0,15.5-0.8,64.2-0.8,71c0,1.3-1.3,19.3-2.5,24.8c-2.1,21.8-14.3,45.3-33.2,57.5
		c-3.4,2.5-11.3,4.6-14.3,4.6H734c-1.3,0-4.6-3.4-5.9-3.4c-3.4-2.1-7.6-1.3-10.9-3.4L715.9,913.2z M730.6,859.1
		c0,2.1,0.8,9.7,0.8,10.9c0,2.1,2.5,5.5,4.6,6.7c2.5,0.8,8.8,4.2,8.8,4.2h4.6c13,0,14.3-12.2,14.3-23.1c0-5.5,0.8-30.2,0.8-34.4
		c0-22.3,1.3-124.3,1.3-146.5c0-1.3-2.1-8-2.1-8.8l-1.3-2.5l-6.3-6.3c-2.5-1.3-6.7-1.3-8-1.3c-7.6,0-15.5,4.6-16.8,12.2
		c0,8.8-0.8,48.7-0.8,57.5v131.4H730.6z M739.9,676.4v-5.9c1.3-2.1,5.5-4.2,8.4-4.2c0.8,0,2.5,0,3.8,0.4l2.9,2.9
		c0,0.4,0.4,1.3,0.8,1.7c0,0.8,0.4,1.7,0.8,2.5l-0.4-0.4c0.4,1.7,0.8,4.2,1.3,4.2c0,10.9-0.4,44.9-0.8,72.6
		c-0.4,31.1-0.4,62.1-0.4,73.1c0,1.7-0.4,10.1-0.4,14.7c-0.4,8-0.4,16.8-0.4,19.7c0,7.1-0.4,14.7-5.9,14.7H747
		c0-7.6,0.8-28.6,0.8-32.3c0-22.3,1.3-124.3,1.3-146.5c0-1.3-2.1-8-2.1-8.8l-1.3-2.5L739.9,676.4z"/>
	<path d="M894.8,927.5v5.5l-3.4,2.9h-32.8c-0.8,0-2.9-2.9-2.9-4.2c0-81.5,2.9-164.2,2.9-245.6c0-4.6,0.4-4.6-2.1-8.8h-32.8
		c-2.1,0-4.2-4.2-4.2-5v-28.6c0-1.3,0.8-2.1,2.1-3.4h6.3v15.1l3.4,13.4H867v0.4c0,40.7-0.8,81.9-1.7,123s-1.3,81.9-1.3,122.6
		c0,3.8,8,12.6,11.3,12.6h19.5V927.5z M875.5,919.1c-0.8,0-2.9-2.9-2.9-4.2c0-81.5,2.9-164.2,2.9-245.6c0-4.6,0.4-4.6-2.1-8.8h-32.8
		c-2.1,0-4.2-4.2-4.2-5V627c0-1.3,0.8-2.1,2.1-3.4c44.5,0,93.6,0,110,2.1l1.3,1.3c-0.4,15.1,1.3,26.4-3.4,36.1
		c-12.6,0-21-1.3-30.6-1.3c-2.1,0-2.1,2.1-3.4,4.2c0,5.5,1.3,114.6,1.3,128.5c0,52.9-2.1,110-2.1,121.8l-3.4,2.9L875.5,919.1
		L875.5,919.1z M920.8,679.8v-9.7c2.1,0,4.6,0.4,7.6,0.4c1.3,0.4,2.5,0.4,3.8,0.4c-0.4,3.4-1.3,6.3-2.5,8.8L920.8,679.8L920.8,679.8
		z"/>
	<path d="M1037.5,927.5v5.5l-3.4,2.9h-32.8c-0.8,0-2.9-2.9-2.9-4.2c0-81.5,2.9-164.2,2.9-245.6c0-4.6,0.4-4.6-2.1-8.8h-32.8
		c-2.1,0-4.2-4.2-4.2-5v-28.6c0-1.3,0.8-2.1,2.1-3.4h6.3v15.1l3.4,13.4h35.7v0.4c0,40.7-0.8,81.9-1.7,123s-1.3,81.9-1.3,122.6
		c0,3.8,8,12.6,11.3,12.6h19.5V927.5z M1018.2,919.1c-0.8,0-2.9-2.9-2.9-4.2c0-81.5,2.9-164.2,2.9-245.6c0-4.6,0.4-4.6-2.1-8.8
		h-32.8c-2.1,0-4.2-4.2-4.2-5V627c0-1.3,0.8-2.1,2.1-3.4c44.5,0,93.6,0,110,2.1l1.3,1.3c-0.4,15.1,1.3,26.4-3.4,36.1
		c-12.6,0-21-1.3-30.6-1.3c-2.1,0-2.1,2.1-3.4,4.2c0,5.5,1.3,114.6,1.3,128.5c0,52.9-2.1,110-2.1,121.8l-3.4,2.9L1018.2,919.1
		L1018.2,919.1z M1063.6,679.8v-9.7c2.1,0,4.6,0.4,7.6,0.4c1.3,0.4,2.5,0.4,3.8,0.4c-0.4,3.4-1.3,6.3-2.5,8.8L1063.6,679.8
		L1063.6,679.8z"/>
</g>
<g>
	<path d="M790,193.2l-14.4-0.2c-1.9,0-3.3-1.5-3.3-1.5l-1.5-2.3l11.6,0.2c2.7,0,4.4-1.9,5-4.2l3.7,5
		C791.7,191.2,791.3,193.2,790,193.2z M705.4,188.9l0.4-0.6l6.5,0.4c2.5,0,4.6-1.5,6-3.1c7.5-10.2,14.4-20.2,22-30.4l4.2,6.2
		L723,191c-0.6,1-1.5,1.5-2.9,1.5h-15.2c0,0-0.6-1-0.4-1.2c0,0,0.4-0.6,0.4-1C705,189.9,705.4,188.9,705.4,188.9z M782.3,185.4
		l-14.4-0.2c-1.9,0-3.3-1.5-3.3-1.5l-24.3-34.9l-25,34.5c-0.6,1-1.5,1.5-2.9,1.5h-15.2c0,0-0.6-1-0.4-1.2c0,0,0.4-0.6,0.4-1
		c0.2-0.6,0.6-1.5,0.6-1.5l33.5-46.2c0.8-1.3,0.4-1.3,15-1.2l3.7,2.7l33.3,45.8C784,183.5,783.6,185.4,782.3,185.4z"/>
</g>
<g>
	<path d="M794.6,615.5l-14.4-0.2c-1.9,0-3.3-1.5-3.3-1.5l-1.5-2.3l11.6,0.2c2.7,0,4.4-1.9,5-4.2l3.7,5
		C796.4,613.6,796,615.5,794.6,615.5z M710.1,611.3l0.4-0.6l6.5,0.4c2.5,0,4.6-1.5,6-3.1c7.5-10.2,14.4-20.2,22-30.4l4.2,6.2
		l-21.6,29.7c-0.6,1-1.5,1.5-2.9,1.5h-15.2c0,0-0.6-1-0.4-1.2c0,0,0.4-0.6,0.4-1C709.7,612.3,710.1,611.3,710.1,611.3z M786.9,607.8
		l-14.4-0.2c-1.9,0-3.3-1.5-3.3-1.5L745,571.3l-25,34.5c-0.6,1-1.5,1.5-2.9,1.5h-15.2c0,0-0.6-1-0.4-1.2c0,0,0.4-0.6,0.4-1
		c0.2-0.6,0.6-1.5,0.6-1.5l33.5-46.2c0.8-1.3,0.4-1.3,15-1.2l3.7,2.7l33.3,45.8C788.7,605.9,788.3,607.8,786.9,607.8z"/>
</g>
<rect x="90" y="76" class="st1" width="163" height="72"/>
<g>
	<path d="M1121.8,920.4l7.5,7.1h27.3v5.9l-3.3,2.5h-37.3l-2.9-2.5l-1.3-15.1v-25.2l1.3-4.6h7.1v13.9L1121.8,920.4z M1135.7,843.6h13
		c-0.4,3.8-0.8,6.3-0.8,6.3l-2.5,2.1h-23.1l-2.1-2.1l-1.2-12.6c0-2.1-5.4-48.7-5.4-62.5c0-76.8,1.2-50.8,1.2-127.5
		c0-1.3,2.1-4.6,3.4-4.6l5,0.4c0,27.7-0.4,39.9-0.8,50.8c-0.4,12.6-0.4,26-0.4,64.2c0,10.5,2.9,37.7,4.6,52.8
		c0.4,5,0.8,10.1,0.8,10.5l1.7,15.5L1135.7,843.6z M1128.5,901.5v-25.2l1.2-4.6h39.9l4.2,2.5c-0.4,24.3-0.4,42.4-0.4,42.4l-3.4,2.5
		h-37.3l-2.9-2.5L1128.5,901.5z M1136.9,833.1l-1.3-12.6c0-2.1-5.4-48.7-5.4-62.5c0-76.8,1.3-50.8,1.3-127.5c0-1.3,2.1-4.6,3.3-4.6
		l33.6,1.3c2.1,0,3.4,2.1,4.6,4.2v50.3c0,27.7-0.8,48.7-0.8,71.7c0,8.4-7.5,79.7-7.5,79.7l-2.5,2.1H1139L1136.9,833.1z"/>
</g>
</svg>
